<?xml version="1.0" encoding="UTF-8"?>
<svg id="Camada_2" data-name="Camada 2" xmlns="http://www.w3.org/2000/svg" viewBox="0 0 442.85 388.47">
  <defs>
    <style>
      .cls-1 {
        letter-spacing: 0em;
      }

      .cls-2 {
        fill: #f4f5f4;
      }

      .cls-3 {
        font-family: DexotickByDhanStudio, 'Dexotick By Dhan Studio';
        font-size: 127.23px;
      }

      .cls-3, .cls-4 {
        fill: #fa1a61;
      }

      .cls-5 {
        font-family: BebasNeue-Regular, 'Bebas Neue';
        font-size: 74.03px;
      }

      .cls-5, .cls-6 {
        fill: #fff;
      }

      .cls-7 {
        letter-spacing: 0em;
      }

      .cls-8 {
        letter-spacing: 0em;
      }

      .cls-9 {
        letter-spacing: -.01em;
      }

      .cls-10 {
        letter-spacing: -.05em;
      }

      .cls-11 {
        letter-spacing: -.03em;
      }

      .cls-12 {
        letter-spacing: 0em;
      }

      .cls-13 {
        letter-spacing: .06em;
      }

      .cls-14 {
        letter-spacing: .02em;
      }

      .cls-15 {
        letter-spacing: .01em;
      }

      .cls-16 {
        letter-spacing: 0em;
      }
    </style>
  </defs>
  <g id="Camada_1-2" data-name="Camada 1">
    <g>
      <g>
        <rect class="cls-4" x="1.94" y="3.64" width="170.52" height="93.35" transform="translate(-2.09 3.82) rotate(-2.48)"/>
        <rect class="cls-4" x="5.55" y="89.09" width="258.52" height="87.29" transform="translate(-5.61 5.95) rotate(-2.48)"/>
        <rect class="cls-4" x="8.85" y="167.76" width="375.37" height="80.2" transform="translate(-8.81 8.69) rotate(-2.48)"/>
        <rect class="cls-6" x="12.84" y="246.74" width="427.93" height="105.36" transform="translate(-12.74 10.09) rotate(-2.48)"/>
        <text class="cls-5" transform="translate(23.28 82.46) rotate(-2.48)"><tspan x="0" y="0">Criar</tspan><tspan class="cls-7" x="0" y="78.97">c</tspan><tspan x="28.5" y="78.97">onec</tspan><tspan class="cls-10" x="144.96" y="78.97">t</tspan><tspan x="168.5" y="78.97">ar</tspan><tspan class="cls-7" x="0" y="157.94">c</tspan><tspan x="28.5" y="157.94">om</tspan><tspan class="cls-11" x="97.95" y="157.94">p</tspan><tspan x="123.93" y="157.94">a</tspan><tspan class="cls-12" x="153.62" y="157.94">r</tspan><tspan x="183.31" y="157.94">tilhar</tspan></text>
        <text class="cls-3" transform="translate(42.57 340.88) rotate(-2.48)"><tspan class="cls-8" x="0" y="0">t</tspan><tspan class="cls-9" x="12.59" y="0">r</tspan><tspan class="cls-1" x="42.49" y="0">a</tspan><tspan class="cls-13" x="80.02" y="0">n</tspan><tspan class="cls-14" x="127.99" y="0">s</tspan><tspan x="150.51" y="0">fo</tspan><tspan class="cls-16" x="216.15" y="0">r</tspan><tspan x="248.72" y="0">m</tspan><tspan class="cls-15" x="301.52" y="0">a</tspan><tspan x="340.58" y="0">r</tspan></text>
      </g>
      <g>
        <g>
          <path class="cls-2" d="M186.36,18.9c-1.53,5.8-3.04,11.61-4.58,17.41-.94,3.55-1.87,7.1-2.87,10.64-.47,1.68-1.02,3.35-1.66,4.97-.86,2.2-2.02,2.8-4.34,2.62-1.75-.14-3.46-.36-5.11-1.02-1.8-.72-2.89-1.88-3.06-3.86-.36-4.06-.76-8.12-1.13-12.19-.54-5.92-1.15-11.84-1.59-17.77-.18-2.49-.08-5.01.03-7.5.08-1.82.84-2.57,2.65-2.91,5.68-1.08,11.36-1.03,17.03.06,1.15.22,2.29.46,3.43.7,1.8.38,2.39,1.12,2.12,2.96-.29,1.96-.73,3.9-1.1,5.85.06.02.12.03.18.05ZM184.22,12.74c-.91-.17-1.47-.31-2.04-.39-2.13-.3-4.26-.71-6.4-.85-3.19-.2-6.39-.25-9.59-.25-1.42,0-1.54.2-1.48,1.72.1,2.5.2,5.01.43,7.5.82,8.93,1.71,17.86,2.54,26.79.27,2.96.65,3.44,3.6,3.87.17.03.35.04.52.06,2.25.2,2.47.09,3.09-2.06.85-2.96,1.66-5.94,2.47-8.92,1.23-4.55,2.45-9.11,3.65-13.67.77-2.93,1.54-5.86,2.24-8.8.38-1.57.62-3.17.97-5Z"/>
          <path class="cls-2" d="M174.27,67.86c-.19,1.59-.88,2.98-1.92,4.21-2.7,3.18-7.82,3.34-10.71.32-1.1-1.15-1.57-2.53-1.52-4.13.19-5.9,5.48-8.59,9.65-8.51,2.24.04,3.59,1.45,4.35,3.46.58,1.52.54,3.08.15,4.65ZM163.17,67.06c-.31,1.5.15,2.82,1.23,3.54,1.46.97,3.47.99,4.76.05,1.7-1.24,2.62-4.13,1.97-6.11-.25-.77-.7-1.33-1.51-1.54-2.52-.64-5.92,1.5-6.45,4.06Z"/>
        </g>
        <g>
          <path class="cls-2" d="M207.56,14c2.72.86,5.44,1.71,8.14,2.59.49.16.95.44,1.41.7,1.26.71,1.88,1.79,1.53,3.22-.66,2.71-1.22,5.48-2.16,8.1-2.23,6.17-5.61,11.79-8.69,17.55-1.93,3.6-3.92,7.17-5.89,10.75-.28.51-.57,1.02-.87,1.52-1.39,2.31-2.15,2.61-4.75,2.04-2.11-.46-4.24-.85-6.35-1.29-1.67-.35-2.15-.79-2-2.5.17-1.96.65-3.9,1.02-5.85.12-.63.36-1.23.49-1.86,2.02-9.72,4.03-19.43,6.06-29.15.2-.97.43-1.94.79-2.86,1.03-2.66,3.02-3.95,5.86-3.65,1.79.19,3.56.65,5.33.99.03-.1.06-.19.09-.29ZM206.49,16.75c-.02.06-.04.11-.06.17-.74-.14-1.49-.3-2.23-.42-.75-.13-1.49-.29-2.24-.34-1.85-.13-2.83.58-3.32,2.38-.42,1.57-.84,3.15-1.16,4.75-1.05,5.26-2.01,10.54-3.07,15.8-.6,2.97-1.31,5.92-2.02,8.87-.51,2.15-1.1,4.29-1.64,6.44-.38,1.52-.25,1.78,1.18,2.1,1.37.31,2.75.53,4.12.8,1.68.33,1.86.28,2.67-1.18,1.11-1.99,2.17-3.99,3.25-6,3.18-5.96,6.4-11.91,9.52-17.91,1.7-3.26,2.95-6.72,3.89-10.28.48-1.8.33-2.12-1.44-2.76-2.46-.89-4.97-1.63-7.45-2.44Z"/>
          <path class="cls-2" d="M194.93,72.14c-.73,3.74-3.92,6.55-7.52,6.63-3.17.07-5.95-2.63-6-5.82-.06-3.63,2.15-6.73,5.59-7.84,5.12-1.65,8.97,1.76,7.94,7.03ZM189.57,68.06c-3.34-.95-5.37,2.63-5.1,4.78.27,2.11,2.34,3.29,4.27,2.43,1.5-.67,2.64-1.79,3.06-3.38.59-2.26-.07-3.47-2.23-3.83Z"/>
        </g>
      </g>
    </g>
  </g>
</svg>