<?xml version="1.0" encoding="UTF-8"?>
<svg id="Camada_2" data-name="Camada 2" xmlns="http://www.w3.org/2000/svg" viewBox="0 0 35.57 70.02">
  <defs>
    <style>
      .cls-1 {
        fill: #f4f5f4;
      }
    </style>
  </defs>
  <g id="Camada_1-2" data-name="Camada 1">
    <g>
      <path class="cls-1" d="M19.22,37.91c-1.13.03-1.59-.5-1.92-1.16-.7-1.36-1.32-2.76-2.06-4.09-.63-1.14-1.33-2.25-2.11-3.3-2.3-3.1-5.28-5.15-9.13-5.85-.91-.17-1.8-.43-2.69-.69-.66-.2-1.19-.61-1.29-1.33-.11-.76.41-1.21.97-1.57.46-.29.95-.54,1.44-.77,3.51-1.68,6.32-4.24,8.91-7.07,1.2-1.31,2-2.85,2.36-4.6.35-1.71.67-3.42,1.02-5.12.11-.53.21-1.09.44-1.57.47-.98,1.48-1.04,2.05-.13.26.41.36.91.54,1.36.74,1.87,1.43,3.77,2.23,5.62.77,1.78,1.99,3.25,3.51,4.45.43.34.88.65,1.27,1.03,2.29,2.21,5.16,2.91,8.21,3.17.53.04,1.1.14,1.58.36,1.22.58,1.36,1.74.33,2.62-.33.28-.73.47-1.12.65-.64.3-1.29.58-1.95.86-6.36,2.73-9.72,7.79-11.19,14.34-.14.64-.22,1.31-.5,1.89-.21.43-.7.72-.91.92ZM4.46,20.8c6.81,1.3,10.64,5.97,13.87,11.77.72-1.63,1.22-2.99,1.9-4.26.7-1.29,1.49-2.55,2.38-3.7.9-1.15,1.9-2.25,3-3.22,1.07-.95,2.31-1.71,3.64-2.67-.5-.24-.76-.41-1.05-.5-4.26-1.42-7.8-3.81-10.36-7.56-.26-.38-.63-.68-1.06-1.14-3.02,5.05-7.26,8.49-12.32,11.28Z"/>
      <path class="cls-1" d="M15.62,54.17c1.12.14,2.41.31,3.71.44,1.35.14,1.42.12,1.98-1.14.33-.74.55-1.54.84-2.3.15-.4.27-.85.54-1.17.71-.82,1.66-.77,2.11.22.47,1.03.82,2.15,1,3.26.23,1.45.93,2.17,2.4,2.34,1.07.13,2.12.47,3.16.8.68.22,1.3.61,1.36,1.46.06.77-.44,1.2-1,1.56-.87.56-1.75,1.12-2.63,1.65-.7.43-.9.97-.69,1.79.35,1.37.58,2.77.85,4.16.06.32.2.7.09.96-.24.57-.5,1.24-.96,1.59-.56.43-1.27.16-1.79-.31-.53-.47-1.02-.99-1.53-1.48-.47-.45-.96-.89-1.41-1.36-.64-.66-1.3-.7-2.03-.16-.61.45-1.24.89-1.87,1.32-.41.27-.8.59-1.25.76-1.33.49-2.33-.36-2.04-1.75.23-1.06.48-2.15.93-3.13.7-1.52.27-2.55-1.01-3.48-.92-.67-1.72-1.51-2.55-2.29-.31-.3-.61-.63-.83-1-.82-1.43-.17-2.63,1.46-2.74.33-.02.65,0,1.16,0Z"/>
    </g>
  </g>
</svg>