<?xml version="1.0" encoding="UTF-8"?>
<svg id="Camada_2" data-name="Camada 2" xmlns="http://www.w3.org/2000/svg" viewBox="0 0 36.03 34.96">
  <defs>
    <style>
      .cls-1 {
        fill: #f4f5f4;
      }
    </style>
  </defs>
  <g id="Camada_1-2" data-name="Camada 1">
    <g>
      <path class="cls-1" d="M17.25,28.74c.13-1.85.24-3.91.43-5.96.05-.57.24-1.19.56-1.66.52-.76,1.43-.66,1.8.19.21.48.28,1.05.3,1.58.12,3.37-.1,6.73-.62,10.06-.19,1.21-.72,2.01-1.34,2-.66,0-1.08-.74-1.11-2.09-.03-1.3,0-2.61,0-4.13Z"/>
      <path class="cls-1" d="M5.79,16.14c1.68-.13,3.36-.26,5.04-.37.38-.03.77-.03,1.13.05.6.13,1.16.39,1.21,1.13.05.71-.34,1.17-.95,1.36-.94.28-1.9.61-2.86.65-2.29.09-4.58.03-6.87-.02-.53-.01-1.08-.17-1.59-.34C.34,18.42,0,18,0,17.38c0-.63.35-1.05.91-1.22.51-.15,1.07-.22,1.61-.24,1.09-.03,2.18-.01,3.27-.01,0,.08,0,.16,0,.24Z"/>
      <path class="cls-1" d="M27.81,16.01c2.21.12,4.33.22,6.45.35.32.02.66.07.95.19,1.01.43,1.1,1.38.17,2-.35.23-.8.45-1.2.44-2.76-.05-5.53-.07-8.28-.28-1.27-.1-1.91-.81-1.86-1.48.06-.67.87-1.16,2.08-1.21.6-.03,1.2,0,1.7,0Z"/>
      <path class="cls-1" d="M20.49,7.47c-.12,1.28-.17,2.31-.33,3.33-.09.56-.44,1.04-1.12.96-.64-.07-.94-.53-.99-1.12-.24-2.87-.49-5.75-.66-8.63-.07-1.25.35-1.9,1-2,.66-.1,1.15.38,1.37,1.71.33,1.98.51,3.99.73,5.75Z"/>
      <path class="cls-1" d="M12.23,8.3c-.01.96-.64,1.78-1.35,1.75-.72-.03-1.7-1.27-1.7-2.16,0-.84.58-1.41,1.45-1.42,1-.01,1.62.7,1.6,1.84Z"/>
      <path class="cls-1" d="M28.59,6.91c.74.03,1.3.68,1.24,1.41-.06.75-.68,1.25-1.45,1.19-.71-.06-1.2-.61-1.17-1.29.03-.73.68-1.34,1.38-1.31Z"/>
      <path class="cls-1" d="M28.14,26.04c-.1.76-.77,1.28-1.49,1.14-.64-.12-1.12-.78-1.05-1.43.08-.72.81-1.28,1.5-1.15.64.12,1.13.79,1.04,1.44Z"/>
      <path class="cls-1" d="M11.19,25.23c-.23.19-.56.67-.97.76-.58.13-1-.31-1.06-.93-.06-.6.15-1.06.82-1.15.6-.08,1.15.42,1.21,1.33Z"/>
    </g>
  </g>
</svg>