<?xml version="1.0" encoding="UTF-8"?>
<svg id="Camada_2" data-name="Camada 2" xmlns="http://www.w3.org/2000/svg" viewBox="0 0 59.27 59.78">
  <defs>
    <style>
      .cls-1 {
        fill: #f4f5f4;
      }
    </style>
  </defs>
  <g id="Camada_1-2" data-name="Camada 1">
    <g>
      <path class="cls-1" d="M28.19,59.78c-13.39.22-25.63-9.48-27.8-23.77-1.45-9.49,1.21-17.93,7.43-25.2C12.6,5.23,18.68,1.8,25.92.48c3.91-.71,7.81-.67,11.65.43.62.18,1.26.42,1.76.81.32.25.56.82.54,1.24-.02.59-.61.73-1.12.69-1.19-.1-2.38-.21-3.57-.39-7.44-1.1-14.19.63-20.24,5.01-6.3,4.56-10.14,10.72-11.51,18.37-2.26,12.63,5.07,26.5,19.63,29.48,8.11,1.66,15.51-.34,22-5.37,6.32-4.9,9.97-11.4,10.92-19.4.58-4.85-.25-9.43-2.21-13.86-.24-.55-.51-1.09-.67-1.66-.21-.71.04-1.33.7-1.66.63-.32,1.29-.23,1.8.3.26.27.47.6.64.94,2.54,5.17,3.46,10.62,2.82,16.35-.66,5.9-2.79,11.2-6.44,15.85-5.21,6.64-12.01,10.65-20.37,11.93-1.34.2-2.72.16-4.08.23Z"/>
      <path class="cls-1" d="M27.91,35.93c.38-.53.72-.92.99-1.37,2.67-4.44,5.27-8.92,8.01-13.31,2.71-4.35,5.55-8.61,8.36-12.9.41-.63.92-1.22,1.45-1.76.46-.47,1.09-.57,1.66-.22.63.38.86,1.02.57,1.7-.29.7-.67,1.36-1.08,2-4.76,7.5-9.56,14.98-14.3,22.5-1.28,2.03-2.38,4.16-3.57,6.24-.08.14-.16.28-.25.42-1.39,2.25-2.88,2.25-4.06-.09-1.55-3.06-2.99-6.18-4.47-9.28-.66-1.38-1.31-2.76-1.94-4.15-.25-.54-.53-1.1-.6-1.68-.05-.42.11-1.14.38-1.26.4-.18,1.1-.1,1.47.15.52.35.95.91,1.25,1.47.99,1.82,1.93,3.66,2.86,5.51.86,1.7,1.67,3.43,2.53,5.14.14.27.4.48.74.88Z"/>
    </g>
  </g>
</svg>