<?xml version="1.0" encoding="UTF-8"?>
<svg id="Camada_2" data-name="Camada 2" xmlns="http://www.w3.org/2000/svg" viewBox="0 0 123.61 106.68">
  <defs>
    <style>
      .cls-1 {
        fill: #f4f5f4;
        stroke: #fff;
        stroke-miterlimit: 10;
        stroke-width: .5px;
      }
    </style>
  </defs>
  <g id="Camada_1-2" data-name="Camada 1">
    <g>
      <path class="cls-1" d="M.42,26.99c0,3.11-.03,6.22.01,9.33.01,1.14.2,2.28.27,3.42.35,5.49.57,10.99,1.05,16.47.38,4.26,1.48,8.36,3.78,12.06,2.14,3.44,5.21,5.6,9.16,6.28,4.77.82,9.58,1.4,14.38,2.05,1.13.16,2.27.23,3.41.33,2.03.18,2.43.5,2.82,2.48.33,1.71.62,3.43.9,5.15.6,3.67,2.37,6.78,4.66,9.61,4.41,5.46,9.68,9.75,16.58,11.67,1.24.35,2.56.45,3.86.58.82.08,1.51-.29,1.86-1.07.34-.79.08-1.51-.47-2.11-.55-.6-1.15-1.16-1.76-1.71-3.97-3.54-6.05-8.03-6.81-13.23-.3-2.03-.19-4.02.22-6.01.77-3.72,2.79-5.28,6.6-5.67,5.39-.54,10.77-.35,16.16.22,2.22.23,4.46.24,6.69.4,3.75.28,7.49.73,11.24.87,3.81.14,7.63,0,11.44-.08,1.41-.03,2.82-.26,4.22-.43,5.18-.64,8.31-3.7,10.03-8.46.96-2.64,1.37-5.41,1.47-8.18.24-6.54.29-13.08.34-19.62.02-2.61-.22-5.23-.2-7.84.02-3.6.09-7.2.27-10.79.14-2.77.48-5.53.74-8.3.36-3.88-1.59-7.52-5.03-9.37-2.55-1.38-5.33-1.94-8.17-2.13-7.78-.53-15.57-.7-23.37-.71-5.56,0-11.11-.38-16.67-.58-3.43-.13-6.87-.2-10.3-.36-4.63-.21-9.25-.53-13.88-.69-4.47-.16-8.94-.21-13.41-.27-3.05-.04-6.1-.04-9.15-.04-4.2,0-8.39.27-12.53,1.02-1.06.19-2.11.56-3.11.99-2.07.89-3.63,2.34-4.72,4.34-1.33,2.45-2.04,5.08-2.23,7.8-.29,4.18-.35,8.38-.5,12.58.05,0,.11,0,.16,0ZM57.17,102.31c-.61-.09-.83-.09-1.02-.15-.51-.18-1.02-.37-1.52-.6-4.35-2.01-7.81-5.14-10.9-8.72-2.78-3.23-4.47-6.92-4.96-11.18-.17-1.51-.6-2.99-.97-4.47-.4-1.58-1.46-2.52-3.03-2.88-.64-.15-1.28-.28-1.92-.37-5.88-.79-11.77-1.48-17.64-2.37-2.97-.45-5.37-2.03-7.05-4.6-1.36-2.08-2.21-4.37-2.8-6.77-1.19-4.85-1.21-9.82-1.61-14.76-.1-1.19-.03-2.4-.1-3.6-.17-2.99-.5-5.98-.55-8.97-.09-5.02-.12-10.04.03-15.05.07-2.38.46-4.77.99-7.09.96-4.19,3.62-6.72,7.94-7.38.27-.04.54-.07.81-.1,3.74-.43,7.48-.75,11.24-.66,4.47.11,8.93.19,13.4.33,5.77.19,11.54.42,17.31.65,5.12.2,10.23.44,15.35.65,5.39.22,10.78.6,16.17.62,7.58.02,15.15.19,22.71.71,2.56.18,5.1.56,7.44,1.69,2.87,1.38,4.36,4.31,3.94,7.4-.34,2.48-.77,4.97-.84,7.46-.16,5.83-.14,11.66-.18,17.48-.05,7.85.43,15.71-.59,23.53-.25,1.88-.69,3.76-1.3,5.55-1.15,3.38-3.55,5.45-7.15,5.9-2.43.3-4.88.61-7.32.64-3.16.05-6.32-.12-9.47-.29-3.48-.2-6.95-.53-10.43-.78-4.24-.3-8.48-.7-12.72-.81-3.43-.09-6.87.11-10.29.3-4.05.23-7.13,2.63-8.39,6.46-.9,2.73-1.09,5.52-.7,8.39.64,4.7,2.19,8.98,5.29,12.63.23.28.4.61.8,1.21Z"/>
      <path class="cls-1" d="M64.36,26.04c-.14-.41-.3-.82-.43-1.23-.77-2.44-1.88-4.71-3.63-6.68-1.4-1.58-3.06-2.88-5.22-3.43-3.39-.86-6.28,0-8.57,2.47-2.06,2.21-3.03,4.88-3.54,7.74-.59,3.34.15,6.56.93,9.77,1.38,5.65,4.08,10.78,7.18,15.74,1.49,2.38,3.08,4.71,4.73,7,.63.88,1.45,1.67,2.33,2.34,1.19.92,1.64.85,2.95.06,7.2-4.34,13.47-9.69,19.14-15.66,2.73-2.88,5.03-6.07,5.98-9.92.85-3.45.71-6.87-.68-10.2-1.94-4.62-6.31-6.18-10.99-5.53-3.51.48-6.05,2.3-7.98,4.98-.61.85-1.21,1.7-1.82,2.55-.12,0-.24,0-.37,0ZM64.29,32.43c.76-.4.84-1.04.99-1.63.67-2.67,2.08-4.95,3.93-7.06,1.58-1.79,3.53-2.82,5.94-3.13,4.73-.59,7.35,1.46,8.5,4.63,1.21,3.34,1.1,6.65-.21,9.93-1.19,2.99-3.15,5.54-5.44,7.83-2.65,2.64-5.47,5.14-8.25,7.66-2.87,2.59-6.18,4.64-9.43,6.76-.71.46-.88.44-1.44-.19-.68-.76-1.36-1.53-1.92-2.36-2.71-4.01-5.39-8.02-7.45-12.37-1.45-3.06-2.71-6.17-3.42-9.46-.64-2.96-1.2-5.91-.4-8.92.6-2.24,1.5-4.32,3.33-5.93,1.43-1.26,3.12-1.76,5.1-1.32,1.86.41,3.24,1.46,4.4,2.79,1.96,2.25,3.1,4.87,3.74,7.69.24,1.04.37,2.11.52,3.17.12.89.6,1.52,1.52,1.92Z"/>
    </g>
  </g>
</svg>