<?xml version="1.0" encoding="UTF-8"?>
<svg id="Camada_2" data-name="Camada 2" xmlns="http://www.w3.org/2000/svg" viewBox="0 0 48.39 53.95">
  <defs>
    <style>
      .cls-1 {
        fill: #f4f5f4;
      }
    </style>
  </defs>
  <g id="Camada_1-2" data-name="Camada 1">
    <path class="cls-1" d="M26.41,7.23c-.2.6-.45,1.18-.58,1.79-1.32,5.84-2.62,11.69-3.94,17.53-.25,1.11-.51,2.23-.9,3.31-.42,1.17-1.14,1.5-2.32,1.15-.57-.17-1.11-.46-1.64-.73-3.15-1.61-6.3-3.24-9.46-4.86-.47-.24-.96-.44-1.51-.68-.36.75.1,1.18.34,1.61,3.22,5.77,5.92,11.79,8.28,17.96.9,2.34,1.77,4.69,2.62,7.05.16.45.33.97.27,1.42-.06.42-.36,1.03-.69,1.13-.43.13-1.11-.02-1.46-.31-.43-.36-.7-.97-.91-1.52-1.07-2.8-2.08-5.62-3.15-8.42-2.7-7.1-5.95-13.93-10.01-20.37-.41-.64-.79-1.31-1.14-1.98-.32-.63-.34-1.26.19-1.81.53-.56,1.14-.56,1.8-.25.2.09.39.19.59.29,4.79,2.61,9.57,5.22,14.36,7.82.32.18.68.3,1.21.53.19-.65.39-1.18.52-1.74,1.09-4.95,2.07-9.92,3.26-14.84.73-3.01,1.75-5.96,2.68-8.92.19-.61.49-1.23.88-1.74.7-.9,1.67-.85,2.3.1.3.44.49.98.63,1.5,1.41,5.16,2.34,10.42,3.03,15.71.44,3.4.7,6.83,1.06,10.24.06.52.24,1.03.43,1.81.66-.48,1.17-.77,1.57-1.17,3.22-3.1,6.42-6.23,9.64-9.33.55-.53,1.09-1.08,1.73-1.49,1.03-.65,2.12-.09,2.25,1.14.06.58-.02,1.2-.14,1.78-.96,4.64-1.97,9.27-2.93,13.91-.74,3.57-1.37,7.17-2.16,10.73-.41,1.86-1.05,3.66-1.62,5.48-.38,1.21-1.16,1.92-2.51,1.95-5.18.1-10.35.24-15.53.32-.6.01-1.21-.19-1.88-.3.24-1.12.97-1.25,1.65-1.34,2-.26,4-.52,6.01-.66,2.72-.19,5.44-.28,8.16-.39,1.64-.07,1.87-.15,2.27-1.76.78-3.17,1.52-6.36,2.2-9.55,1.01-4.74,1.96-9.49,2.93-14.24.11-.56.15-1.14.23-1.71-.11-.06-.22-.12-.32-.19-.35.28-.73.54-1.05.85-2.57,2.52-5.11,5.07-7.7,7.58-.74.72-1.54,1.4-2.39,1.97-1.09.72-1.94.41-2.2-.86-.62-2.98-1.18-5.98-1.67-8.98-.83-5.1-1.59-10.22-2.4-15.33-.06-.41-.29-.79-.44-1.19-.15,0-.3,0-.44-.01Z"/>
  </g>
</svg>