<?xml version="1.0" encoding="UTF-8"?>
<svg id="Camada_2" data-name="Camada 2" xmlns="http://www.w3.org/2000/svg" viewBox="0 0 45.44 46.61">
  <defs>
    <style>
      .cls-1 {
        fill: #f4f5f4;
      }
    </style>
  </defs>
  <g id="Camada_1-2" data-name="Camada 1">
    <path class="cls-1" d="M10.52,43.86c.35-2.56.69-5.26,1.1-7.95.25-1.61.62-3.21.92-4.81.31-1.64.25-1.73-1.3-2.51-2.68-1.34-5.36-2.69-8.03-4.05-.73-.37-1.43-.79-2.11-1.25-.76-.52-1.29-1.22-1.05-2.21.23-.96,1.07-1.2,1.89-1.32,1.18-.18,2.38-.29,3.58-.36,2.56-.15,5.12-.26,7.68-.39,1.43-.07,1.46-.16,1.93-1.51,1.61-4.57,3.24-9.14,4.92-13.69.37-1.01.93-1.98,1.56-2.86.89-1.25,2.2-1.26,3.15-.06.43.54.72,1.22.97,1.87,1.4,3.67,2.79,7.34,4.12,11.03.4,1.09.93,1.62,2.2,1.72,3.85.31,7.68.82,11.52,1.26.37.04.76.15,1.08.32.87.48,1.02,1.28.36,2.04-.35.4-.81.73-1.26,1.03-2.3,1.56-4.62,3.1-6.93,4.65-1.21.81-1.18.87-.76,2.27.59,1.93,1.06,3.89,1.65,5.81.54,1.77,1.18,3.51,1.76,5.27.19.57.4,1.14.46,1.73.2,1.93-1.12,2.89-2.85,2.04-3.81-1.88-7.59-3.82-11.4-5.72-1.47-.73-1.42-.66-2.58.58-2.67,2.87-5.4,5.69-8.12,8.52-.3.31-.66.57-1.03.8-.78.48-1.62.74-2.45.17-.79-.54-1.05-1.36-1.01-2.43ZM5.99,22.35l-.07.38c.44.29.86.62,1.33.85,2,.99,4.02,1.95,6.03,2.92,2.03.98,2.33,1.47,2.17,3.68-.03.38-.11.75-.17,1.13-.53,3.22-1.06,6.44-1.57,9.66-.05.33.07.68.15,1.37.67-.6,1.13-.95,1.52-1.36,2.15-2.24,4.32-4.46,6.42-6.74,1.17-1.27,2.43-1.77,4.06-.95.53.27,1.12.45,1.64.73,2.35,1.27,4.68,2.57,7.02,3.85.44.24.92.42,1.65.75-.14-.77-.19-1.18-.29-1.58-.93-3.41-1.84-6.83-2.84-10.23-.34-1.13-.02-1.9.81-2.58.42-.34.83-.71,1.27-1.03,1.42-1.01,2.86-2,4.28-3.02.35-.25.64-.6,1.14-1.07-.63-.17-.92-.3-1.23-.33-2.98-.22-5.97-.48-8.96-.6-1.13-.05-1.87-.43-2.32-1.44-.2-.45-.39-.9-.59-1.35-1.29-2.94-2.57-5.89-3.87-8.83-.53-1.19-1.22-1.26-2.02-.21-.23.3-.43.64-.57.99-.65,1.67-1.36,3.33-1.9,5.04-.8,2.54-1.51,5.12-2.2,7.69-.25.94-.74,1.3-1.72,1.36-2.72.15-5.43.4-8.14.63-.35.03-.69.19-1.03.29Z"/>
  </g>
</svg>