<?xml version="1.0" encoding="UTF-8"?>
<svg id="Camada_2" data-name="Camada 2" xmlns="http://www.w3.org/2000/svg" viewBox="0 0 62.27 68.92">
  <defs>
    <style>
      .cls-1 {
        fill: #f4f5f4;
      }
    </style>
  </defs>
  <g id="Camada_1-2" data-name="Camada 1">
    <g>
      <path class="cls-1" d="M21.23,52.88c.08-.69.24-1.56.29-2.42.24-4.55-.82-8.76-3.5-12.49-.94-1.31-2.26-2.23-3.79-2.75-2.07-.69-4.16-1.28-6.38-1.23-.88.02-1.86.08-2.2-.97-.37-1.15.57-1.63,1.34-2.15,4.94-3.37,9.35-7.28,12.88-12.18,2.49-3.47,3.55-7.3,3.7-11.47.03-.93.03-1.86.14-2.77.07-.65.27-1.32,1.09-1.44.81-.12,1.2.4,1.48,1.03.4.89.72,1.83,1.17,2.7,1.1,2.13,2.1,4.33,3.43,6.31,2.23,3.33,5.51,5.43,9.24,6.7,2.35.81,4.85,1.22,7.27,1.8.63.15,1.3.24,1.89.48,1.27.51,1.58,1.7.76,2.79-.32.43-.77.77-1.16,1.15-1.08,1.08-2.22,2.1-3.21,3.26-2.98,3.47-4.09,7.52-3.4,12.02.39,2.58,1,5.12,1.49,7.69.1.53.18,1.07.21,1.61.04.71-.27,1.27-.92,1.6-.65.33-1.18,0-1.64-.39-.49-.42-.93-.92-1.4-1.37-1.43-1.38-3.04-2.46-4.98-3.02-1.84-.53-3.56-.26-5.18.73-2.16,1.32-3.59,3.28-4.9,5.39-.5.8-1.21,1.53-1.96,2.11-.77.58-1.43.22-1.68-.73-.04-.16-.06-.32-.06-.49,0-.44,0-.87,0-1.48ZM46.14,24.41c-1.88-.48-3.37-.81-4.82-1.23-3.83-1.09-7.24-2.93-10.14-5.72-1.68-1.61-2.96-3.47-4.07-5.49-.26-.48-.39-1.15-1.05-1.25-.13.09-.19.11-.21.15-.07.14-.17.29-.19.44-.34,3.55-2.01,6.5-4.04,9.33-2.6,3.64-5.81,6.63-9.48,9.15-.5.35-.96.77-1.43,1.16.03.13.07.25.1.38.98.23,1.97.46,2.95.7,3.34.81,5.93,2.65,7.68,5.64,1.57,2.67,2.53,5.53,2.89,8.61.09.73.27,1.45.46,2.49.81-.71,1.38-1.18,1.92-1.68,2.62-2.4,5.6-3.57,9.14-2.61,1.09.29,2.1.89,3.16,1.32.31.12.66.13,1.16.23-.16-.91-.3-1.6-.4-2.29-.41-2.87-.56-5.74-.02-8.61.66-3.55,2.53-6.46,4.92-9.08.42-.46.84-.94,1.46-1.64Z"/>
      <path class="cls-1" d="M52.46,37.41c.63.13,1.39.23,2.11.46,1.91.62,3.8,1.27,5.68,1.99.59.22,1.17.6,1.62,1.05.69.68.48,1.47-.44,1.75-.44.13-.99.16-1.42.02-2.89-.92-5.76-1.89-8.64-2.86-.2-.07-.44-.16-.56-.32-.24-.32-.66-.78-.57-1.04.13-.38.59-.7.98-.91.31-.16.74-.1,1.24-.15Z"/>
      <path class="cls-1" d="M1.27,6.1c.71.53,1.31.89,1.81,1.36,1.78,1.67,3.54,3.36,5.26,5.1.56.57,1,1.28,1.37,1.98.13.25.03.83-.18,1.01-.27.23-.78.33-1.15.26-.4-.08-.78-.37-1.12-.63-2.15-1.68-4.05-3.61-5.54-5.91-.56-.87-1.05-1.78-.45-3.16Z"/>
      <path class="cls-1" d="M1.31,53.3c-1.11.02-1.51-.41-1.21-1.11.25-.58.63-1.17,1.1-1.59,1.74-1.51,3.63-2.78,5.83-3.54.26-.09.52-.18.78-.23.71-.15,1.35.02,1.65.71.29.65-.08,1.15-.6,1.54-.22.16-.45.3-.69.44-1.74,1.02-3.47,2.05-5.23,3.04-.61.34-1.27.58-1.64.74Z"/>
      <path class="cls-1" d="M47.3,0c.51,1.05.17,1.96-.3,2.72-1.24,1.98-2.59,3.89-3.92,5.8-.21.3-.53.63-.86.72-.43.11-.99.14-1.36-.05-.54-.28-.59-.87-.32-1.43.17-.34.31-.7.53-1.01,1.15-1.65,2.27-3.32,3.5-4.91.95-1.24,1.36-1.43,2.73-1.83Z"/>
      <path class="cls-1" d="M34.71,68.92c-.4-.54-.91-1.04-1.19-1.63-.98-2.08-1.47-4.29-1.49-6.6,0-.32-.04-.72.13-.95.26-.35.65-.75,1.04-.82.27-.05.77.37.93.69.25.52.35,1.13.44,1.72.3,1.97.61,3.95.84,5.93.06.5-.13,1.02-.2,1.53-.16.04-.33.08-.49.13Z"/>
    </g>
  </g>
</svg>