<?xml version="1.0" encoding="UTF-8"?>
<svg id="Camada_2" data-name="Camada 2" xmlns="http://www.w3.org/2000/svg" viewBox="0 0 53.45 63.08">
  <defs>
    <style>
      .cls-1 {
        fill: #f4f5f4;
      }
    </style>
  </defs>
  <g id="Camada_1-2" data-name="Camada 1">
    <g>
      <g>
        <path class="cls-1" d="M23.54,8.22c-.38,5.59-.75,11.19-1.14,16.78-.24,3.42-.47,6.84-.76,10.26-.14,1.62-.35,3.25-.65,4.85-.41,2.17-1.36,2.93-3.52,3.16-1.63.18-3.23.28-4.87-.04-1.78-.35-2.98-1.21-3.49-3-1.04-3.67-2.12-7.32-3.18-10.98-1.54-5.34-3.13-10.66-4.58-16.02C.74,10.98.39,8.66.06,6.34c-.25-1.68.32-2.5,1.92-3.14C7,1.22,12.22.27,17.61.27c1.09,0,2.18.02,3.27.04,1.71.03,2.39.61,2.47,2.34.08,1.85.02,3.71.02,5.56.06,0,.12,0,.17.01ZM20.49,2.94c-.86,0-1.4-.02-1.94,0-2.01.1-4.03.09-6.03.35-2.96.38-5.91.9-8.84,1.46-1.31.25-1.38.45-1.06,1.84.53,2.28,1.07,4.56,1.71,6.8,2.32,8.05,4.71,16.08,7.04,24.13.77,2.67,1.2,3.04,3.98,2.91.16,0,.33-.02.49-.04,2.1-.21,2.28-.35,2.47-2.44.26-2.87.48-5.74.7-8.62.33-4.39.65-8.79.95-13.18.19-2.82.38-5.65.51-8.47.07-1.5.01-3.01.01-4.75Z"/>
        <path class="cls-1" d="M21.05,55.27c.11,1.5-.28,2.89-1.02,4.2-1.92,3.39-6.59,4.44-9.77,2.17-1.21-.86-1.89-2.05-2.12-3.52-.87-5.45,3.52-8.84,7.36-9.51,2.06-.36,3.55.7,4.6,2.41.8,1.29,1.03,2.73.95,4.25ZM10.73,56.48c-.02,1.43.63,2.56,1.75,3.03,1.51.63,3.36.3,4.38-.79,1.34-1.43,1.68-4.25.73-5.95-.37-.66-.88-1.1-1.66-1.15-2.43-.14-5.17,2.42-5.2,4.86Z"/>
      </g>
      <g>
        <path class="cls-1" d="M42.13,0c2.64.31,5.29.61,7.93.95.48.06.95.24,1.42.39,1.28.43,2.04,1.31,1.97,2.68-.13,2.61-.15,5.24-.56,7.81-.96,6.05-3.08,11.8-4.89,17.63-1.14,3.64-2.34,7.26-3.52,10.89-.17.52-.34,1.04-.53,1.55-.87,2.36-1.51,2.77-4,2.71-2.02-.05-4.04-.03-6.05-.07-1.59-.03-2.12-.34-2.28-1.94-.19-1.83-.09-3.69-.09-5.54,0-.6.11-1.2.12-1.79.15-9.27.28-18.54.44-27.81.02-.92.06-1.86.22-2.76.48-2.63,2.08-4.15,4.74-4.38,1.68-.14,3.38-.03,5.07-.03,0-.09.02-.19.03-.28ZM41.64,2.71c0,.06-.02.11-.03.17-.71,0-1.42-.01-2.12,0-.71.01-1.42,0-2.12.08-1.72.21-2.5,1.03-2.62,2.77-.11,1.52-.22,3.04-.23,4.57-.03,5.01,0,10.03-.04,15.04-.03,2.83-.17,5.66-.29,8.49-.09,2.07-.26,4.13-.37,6.19-.08,1.46.08,1.68,1.45,1.72,1.31.04,2.62,0,3.92.01,1.6,0,1.76-.07,2.25-1.55.67-2.02,1.29-4.05,1.92-6.07,1.87-6.03,3.78-12.05,5.59-18.1.99-3.29,1.53-6.69,1.77-10.11.12-1.73-.07-2-1.8-2.28-2.41-.39-4.84-.62-7.27-.93Z"/>
        <path class="cls-1" d="M40.76,55.56c-.01,3.56-2.45,6.7-5.74,7.4-2.9.62-5.92-1.36-6.53-4.29-.69-3.32.79-6.55,3.75-8.17,4.4-2.41,8.54.04,8.52,5.06ZM35.12,52.76c-3.23-.28-4.47,3.35-3.84,5.28.62,1.89,2.73,2.61,4.35,1.48,1.26-.88,2.11-2.11,2.22-3.64.15-2.18-.68-3.17-2.72-3.13Z"/>
      </g>
    </g>
  </g>
</svg>