<?xml version="1.0" encoding="UTF-8"?>
<svg id="Camada_2" data-name="Camada 2" xmlns="http://www.w3.org/2000/svg" viewBox="0 0 149.03 24.13">
  <defs>
    <style>
      .cls-1 {
        fill: #f4f5f4;
      }
    </style>
  </defs>
  <g id="Camada_1-2" data-name="Camada 1">
    <path class="cls-1" d="M18.2,4.9c2.43-.03,4.59.72,6.68,1.9,3.57,2.02,6.37,4.92,9.23,7.76,1.42,1.41,2.95,2.75,4.55,3.95,1.96,1.46,4.25,2.19,6.68,2.44,2.26.23,4.22-.49,5.77-2.13,1.61-1.7,3.11-3.51,4.72-5.21,1.5-1.58,3.04-3.13,4.64-4.61,2.44-2.26,5.35-3.74,8.44-4.89,2.83-1.05,5.65-.93,8.48.08,3.04,1.08,5.59,2.89,7.97,5.02,1.58,1.41,3.21,2.8,4.94,4.02,4.03,2.83,8.35,2.88,12.73.93,2.82-1.26,5.03-3.41,7.33-5.43,1.92-1.68,3.83-3.43,5.97-4.8,4.83-3.1,10.2-4.46,15.92-3.75,5.84.73,10.76,3.13,13.71,8.57.83,1.53,1.69,3.05,2.49,4.6.27.52.43,1.12.54,1.7.11.57-.08,1.18-.68,1.33-.41.1-1.03.02-1.34-.23-.57-.48-1.04-1.11-1.44-1.75-.61-.97-1.18-1.97-1.66-3-2.19-4.65-5.97-7.06-10.9-7.93-6.31-1.12-11.86.76-16.89,4.42-1.58,1.15-2.94,2.6-4.43,3.87-1.45,1.24-2.9,2.48-4.44,3.61-5.66,4.17-14.07,4.63-20.15-.55-1.54-1.31-3.08-2.61-4.6-3.94-2.04-1.78-4.29-3.16-6.9-3.94-1.67-.5-3.31-.57-4.98-.03-3.26,1.07-6.25,2.61-8.69,5.05-2.12,2.12-4.14,4.33-6.2,6.51-.82.87-1.63,1.76-2.46,2.63-2.66,2.78-5.96,3.45-9.61,2.8-4.06-.72-7.42-2.77-10.34-5.6-1.72-1.67-3.4-3.38-5.08-5.09-1.66-1.7-3.64-2.96-5.7-4.08-2.95-1.6-5.98-1.33-9.01-.15-4.93,1.92-8.11,5.55-10.08,10.35-.29.71-.51,1.45-.85,2.12-.24.47-.57.94-.98,1.27-.61.5-1.35.25-1.51-.52-.12-.62-.14-1.33.02-1.94C2.27,12.34,7.19,7.15,15.27,5.2c.94-.23,1.95-.2,2.92-.29Z"/>
  </g>
</svg>