<?xml version="1.0" encoding="UTF-8"?>
<svg id="Camada_2" data-name="Camada 2" xmlns="http://www.w3.org/2000/svg" viewBox="0 0 58.79 60.26">
  <defs>
    <style>
      .cls-1 {
        fill: #f4f5f4;
      }
    </style>
  </defs>
  <g id="Camada_1-2" data-name="Camada 1">
    <g>
      <path class="cls-1" d="M28.3,42.61c-2.75,1.33-3.87.92-4.73-1.47-.2-.57-.37-1.16-.48-1.77-.58-3.23-1.15-6.47-1.69-9.71-.52-3.09-1.05-6.17-1.49-9.28-.42-2.97.72-4,3.39-2.94,5.82,2.31,11.65,4.64,16.84,8.15.66.45,1.3.93,1.89,1.46,1.91,1.73,1.89,3.05-.09,4.97-1.2,1.16-2.42,2.31-3.72,3.33-2.78,2.18-5.62,4.29-8.45,6.4-.55.41-1.2.69-1.47.85ZM26.53,40.25c.61-.28,1.2-.43,1.65-.76,3.85-2.81,7.71-5.61,11.2-8.91.29-.28.51-.63.74-.93-1.54-1.99-3.93-3.31-15.71-8.75-.47-.22-.98-.32-1.51-.49-.42,2.65,2.35,17.69,3.63,19.84Z"/>
      <path class="cls-1" d="M25.04.59c13.1-2.78,26.97,4.38,31.85,17.99,3.24,9.04,2.26,17.83-2.45,26.16-3.62,6.4-8.93,10.93-15.78,13.62-3.7,1.45-7.53,2.16-11.52,1.82-.64-.06-1.32-.17-1.88-.45-.36-.18-.71-.7-.77-1.11-.09-.58.46-.84.97-.89,1.19-.13,2.38-.25,3.57-.31,7.51-.35,13.8-3.34,18.9-8.81,5.3-5.68,7.89-12.47,7.76-20.24-.21-12.83-10.07-25.03-24.93-25.17-8.28-.07-15.15,3.31-20.56,9.49-5.26,6.02-7.6,13.1-6.99,21.14.37,4.87,2.05,9.21,4.83,13.17.34.49.71.97.98,1.5.34.66.21,1.31-.37,1.76-.56.43-1.23.48-1.83.05-.31-.22-.58-.5-.81-.8C2.54,44.93.58,39.76.11,34.01c-.48-5.91.59-11.52,3.28-16.79C7.22,9.7,13.12,4.46,21.08,1.6c1.28-.46,2.64-.68,3.96-1.01Z"/>
    </g>
  </g>
</svg>