<?xml version="1.0" encoding="UTF-8"?>
<svg id="Camada_2" data-name="Camada 2" xmlns="http://www.w3.org/2000/svg" viewBox="0 0 61.47 58.3">
  <defs>
    <style>
      .cls-1 {
        fill: #f4f5f4;
      }
    </style>
  </defs>
  <g id="Camada_1-2" data-name="Camada 1">
    <g>
      <path class="cls-1" d="M48.11,35.98c0,1-.61,1.51-1.31,1.26-.55-.2-1.09-.52-1.54-.89-1.1-.9-2.17-1.83-3.2-2.8-6.78-6.39-13.56-12.78-20.31-19.2-3.71-3.53-7.38-7.11-11.05-10.68-.62-.61-1.2-1.27-1.73-1.96-.32-.42-.74-.96-.26-1.46.49-.51,1.03-.1,1.45.23,1.37,1.08,2.75,2.15,4.05,3.31,4.54,4.08,9.07,8.17,13.55,12.31,5.64,5.22,11.23,10.49,16.82,15.76.99.93,1.92,1.93,2.83,2.95.35.39.55.91.71,1.17Z"/>
      <path class="cls-1" d="M54.54,25.6c1.19.33,1.3,1.09,1.51,1.82,1.71,5.87,2.93,11.84,3.87,17.87.45,2.91.96,5.8,1.46,8.7.34,2-.35,3-2.36,3.3-1.08.16-2.16.25-3.25.32-2.12.14-4.24.3-6.36.37-4.74.14-9.48.24-14.23.31-.8.01-1.62-.16-2.42-.32-.57-.11-1.02-.46-1.02-1.11,0-.75.56-1.03,1.17-1.15.48-.1.98-.12,1.46-.12,1.42,0,2.84.07,4.25.02,5.83-.2,11.65-.43,17.48-.65.27-.01.54-.06.81-.1,2.09-.33,2.17-.45,1.81-2.49-.41-2.31-.8-4.62-1.16-6.93-.8-5.11-1.47-10.25-2.85-15.25-.29-1.04-.35-2.15-.44-3.23-.03-.4.14-.81.26-1.37Z"/>
      <path class="cls-1" d="M.13,8.23c.57.37,1.09.63,1.51,1,3.97,3.41,8.01,6.74,11.85,10.29,6.97,6.44,13.83,12.99,20.71,19.52,1.38,1.31,2.68,2.71,3.96,4.13.46.51.84,1.17,1.03,1.83.1.36-.15.98-.45,1.25-.23.21-.85.21-1.18.06-.48-.22-.88-.63-1.27-1.01-9.32-9.11-18.64-18.22-27.94-27.34-2.49-2.44-4.95-4.92-7.39-7.41-.53-.55-1.24-1.11-.83-2.33Z"/>
    </g>
  </g>
</svg>