<?xml version="1.0" encoding="UTF-8"?>
<svg id="Camada_2" data-name="Camada 2" xmlns="http://www.w3.org/2000/svg" viewBox="0 0 76.23 57.59">
  <defs>
    <style>
      .cls-1 {
        fill: #f4f5f4;
      }
    </style>
  </defs>
  <g id="Camada_1-2" data-name="Camada 1">
    <path class="cls-1" d="M61.52,4.96c-.6.55-.93.8-1.21,1.12-1.22,1.4-2.41,2.82-3.62,4.22-.5.58-1.01,1.15-1.55,1.68-.56.54-1.23.73-1.93.27-.59-.38-.68-1.03-.26-1.9.21-.44.46-.88.78-1.24,2.28-2.64,4.53-5.31,6.88-7.89,1.35-1.47,2.02-1.57,3.74-.57,2.88,1.66,5.69,3.44,8.53,5.17.84.51,1.7.99,2.5,1.56.6.42,1.11.97.73,1.79-.37.79-1.12.85-1.83.7-.62-.14-1.25-.39-1.8-.72-2.01-1.2-3.99-2.46-5.98-3.7-.45-.27-.91-.51-1.63-.92,0,1.18-.13,2.1.02,2.97.53,3.07.12,6.09-.4,9.1-.69,3.98-1.65,7.89-3.07,11.68-2.28,6.09-6.04,11.12-11.18,15.03-3.38,2.57-6.89,5-10.52,7.19-4.81,2.89-10.17,4.42-15.65,5.51-2.4.48-4.82.97-7.25,1.15-4.07.3-8.16.46-12.24.44-1.35,0-2.7-.75-4.02-1.25-.27-.1-.62-.65-.54-.85.12-.33.53-.7.87-.77.57-.12,1.19,0,1.79,0,2.17.05,4.34.2,6.51.14,1.96-.05,3.91-.3,5.86-.51,10.16-1.08,19.85-3.52,28.21-9.77,2.05-1.53,4.16-3,6.14-4.63,5.65-4.65,8.99-10.74,10.72-17.75.78-3.17,1.4-6.39,1.9-9.61.37-2.41.11-4.85-.49-7.64Z"/>
  </g>
</svg>