<?xml version="1.0" encoding="UTF-8"?>
<svg id="Camada_2" data-name="Camada 2" xmlns="http://www.w3.org/2000/svg" viewBox="0 0 62.1 59.56">
  <defs>
    <style>
      .cls-1 {
        fill: #f4f5f4;
      }
    </style>
  </defs>
  <g id="Camada_1-2" data-name="Camada 1">
    <g>
      <path class="cls-1" d="M62.1,29.22c-.43,11.49-5.71,20.13-15.54,25.97-5.47,3.26-11.5,4.7-17.86,4.3-14.3-.88-25.6-10.45-28.16-23.8-1.65-8.62.48-16.47,5.85-23.37C11.66,5.56,18.69,1.58,27.12.37c5.1-.73,10.25-.49,15.1,1.64.69.3,1.34.73,1.91,1.21.23.19.36.73.25,1-.11.28-.55.55-.87.58-.47.05-.96-.1-1.44-.19-2.35-.46-4.68-1.02-7.04-1.39-4.69-.74-9.26,0-13.63,1.68C12.17,8.45,6.08,14.98,3.78,24.67c-2.57,10.79,2.37,21.9,11.94,27.65,4.46,2.68,9.32,4.07,14.46,4.06,12.88-.04,24.15-7.89,27.78-20.13,2.06-6.94,1.14-13.59-2.39-19.89-.19-.33-.42-.64-.58-.98-.42-.89-.23-1.78.44-2.19.71-.44,1.68-.16,2.28.66.13.18.22.38.33.56,2.72,4.56,4.11,9.47,4.06,14.82Z"/>
      <path class="cls-1" d="M28.88,27.46c-.8-.88-1.47-1.65-2.17-2.39-1.42-1.5-2.88-2.98-4.29-4.5-.4-.43-.82-.94-.98-1.48-.13-.45-.03-1.11.23-1.49.36-.51,1-.35,1.48-.03.45.3.88.64,1.27,1.01,1.85,1.77,3.68,3.56,5.52,5.35,1.19,1.16,1.24,1.17,2.47-.06,5.09-5.09,10.17-10.18,15.26-15.27.46-.46.93-.93,1.45-1.32.89-.67,1.85-.7,2.38-.15.56.58.45,1.45-.33,2.33-.4.45-.84.86-1.26,1.28-5.01,5.01-10.02,10.03-15.02,15.05-.45.45-.86.96-1.41,1.57.83.92,1.56,1.78,2.33,2.6,1.05,1.11,2.15,2.17,3.2,3.27.41.43.77.91,1.09,1.41.34.52.24,1.06-.18,1.5-.42.44-.96.58-1.49.27-.69-.42-1.4-.85-1.98-1.41-1.46-1.39-2.83-2.87-4.26-4.29-.92-.92-1.11-.93-1.99,0-1.96,2.05-3.86,4.15-5.82,6.2-.6.63-1.26,1.21-1.96,1.71-.55.39-1.27.56-1.81.01-.58-.58-.24-1.25.19-1.77,1.87-2.27,3.76-4.52,5.66-6.76.73-.86,1.52-1.67,2.4-2.65Z"/>
    </g>
  </g>
</svg>